<svg width="24" height="24" viewBox="0 0 24 24" fill="none" xmlns="http://www.w3.org/2000/svg">
<path d="M21.2148 8.10728C20.711 6.91643 19.9903 5.84708 19.0719 4.92872C18.1535 4.01036 17.0841 3.28968 15.8932 2.78589C14.6598 2.26425 13.3501 2 12.0007 2C10.6512 2 9.34093 2.26425 8.10817 2.78589C6.91729 3.28968 5.8479 4.01036 4.92951 4.92872C4.01112 5.84708 3.29041 6.91643 2.7866 8.10728C2.26426 9.34068 2 10.6503 2 12.0003C2 13.3504 2.26426 14.66 2.78592 15.8927C3.28972 17.0836 4.01043 18.1529 4.92882 19.0713C5.84721 19.9896 6.9166 20.7103 8.10749 21.2141C9.34093 21.7357 10.6506 22 12 22C13.3494 22 14.6598 21.7357 15.8925 21.2141C17.0834 20.7103 18.1528 19.9896 19.0712 19.0713C19.9896 18.1529 20.7103 17.0836 21.2141 15.8927C21.7357 14.6593 22 13.3497 22 12.0003C22 10.6509 21.7357 9.34068 21.2141 8.10796L21.2148 8.10728ZM21.3692 11.6867H16.9317C16.9111 10.3187 16.758 8.99681 16.4849 7.78675C17.6421 7.55132 18.7561 7.22461 19.8042 6.81073C20.7419 8.21641 21.3102 9.8884 21.3692 11.6867ZM12.3137 2.65136C12.7502 2.72274 13.1785 2.94238 13.591 3.30821C14.11 3.76808 14.5788 4.43317 14.9851 5.28494C15.2741 5.89169 15.5198 6.56707 15.7175 7.29325C14.6117 7.48269 13.4696 7.58701 12.3137 7.60349V2.65136ZM10.4096 3.30821C10.8222 2.94238 11.2505 2.72274 11.687 2.65136V7.60349C10.5311 7.5877 9.38966 7.48269 8.2832 7.29325C8.48088 6.56639 8.72592 5.891 9.01558 5.28494C9.42192 4.43317 9.89073 3.76808 10.4096 3.30821ZM11.687 8.22945V11.6867H7.69566C7.71625 10.3551 7.86519 9.07231 8.13151 7.90274C9.28671 8.10316 10.4796 8.21298 11.687 8.22945ZM11.687 12.3126V15.7699C10.4796 15.7863 9.28671 15.8968 8.13151 16.0973C7.86519 14.927 7.71556 13.6442 7.69566 12.3133L11.687 12.3126ZM11.687 16.3958V21.348C11.2505 21.2766 10.8222 21.0569 10.4096 20.6911C9.89073 20.2312 9.42192 19.5661 9.01558 18.7144C8.72661 18.1076 8.48088 17.4322 8.2832 16.7061C9.38898 16.5166 10.5311 16.4123 11.687 16.3958ZM13.591 20.6911C13.1785 21.0569 12.7502 21.2766 12.3137 21.348V16.3958C13.4696 16.4116 14.611 16.5166 15.7175 16.7061C15.5198 17.4329 15.2748 18.1083 14.9851 18.7144C14.5788 19.5661 14.11 20.2312 13.591 20.6911ZM12.3137 15.7699V12.3126H16.305C16.2844 13.6442 16.1355 14.927 15.8692 16.0966C14.714 15.8962 13.521 15.7863 12.3137 15.7699ZM12.3137 11.6867V8.22945C13.521 8.21298 14.714 8.10247 15.8692 7.90206C16.1355 9.07231 16.2851 10.3551 16.305 11.686L12.3137 11.6867ZM19.4267 6.28498C18.4479 6.66179 17.4108 6.96036 16.3345 7.17794C16.1245 6.39548 15.8623 5.66794 15.5507 5.01452C15.1059 4.08243 14.5849 3.35145 14.0132 2.84286C16.2 3.32331 18.1034 4.56907 19.4267 6.28498ZM9.98819 2.84354C9.41643 3.35214 8.89546 4.08381 8.45068 5.0152C8.13906 5.66862 7.87618 6.39617 7.66683 7.17863C6.59057 6.96105 5.55344 6.66179 4.57464 6.28567C5.898 4.57044 7.80136 3.32331 9.98819 2.84354ZM4.19713 6.81073C5.24456 7.22461 6.35926 7.55132 7.51582 7.78675C7.24264 8.99681 7.08889 10.3187 7.06898 11.6867H2.63148C2.69051 9.88771 3.25952 8.21572 4.19713 6.81073ZM2.63148 12.3133H7.06898C7.08957 13.6813 7.24264 15.0032 7.51582 16.2133C6.35857 16.4487 5.24456 16.7754 4.19713 17.1893C3.25952 15.7836 2.69051 14.1116 2.63148 12.3133ZM4.57464 17.715C5.55344 17.3382 6.59057 17.0396 7.66683 16.8221C7.87686 17.6045 8.13906 18.3321 8.45068 18.9855C8.89546 19.9176 9.41643 20.6485 9.98819 21.1571C7.80136 20.6767 5.898 19.4302 4.57464 17.715ZM14.0132 21.1565C14.5849 20.6479 15.1059 19.9162 15.5507 18.9848C15.8623 18.3314 16.1252 17.6038 16.3345 16.8214C17.4108 17.0389 18.4479 17.3382 19.4267 17.7143C18.1034 19.4296 16.2 20.676 14.0132 21.1565ZM19.8042 17.1893C18.7568 16.7754 17.6421 16.4487 16.4849 16.2133C16.758 15.0032 16.9118 13.6813 16.9317 12.3133H21.3692C21.3102 14.1123 20.7419 15.7836 19.8042 17.1893Z" fill="#33C1E2"/>
</svg>
