<svg width="24" height="24" viewBox="0 0 24 24" fill="none" xmlns="http://www.w3.org/2000/svg">
<path d="M18.3533 1.82667C16.44 0.63 14.24 0 11.9967 0C11.22 0 10.44 0.0766667 9.68667 0.226667C7.68 0.616667 5.8 1.52333 4.26 2.84333C2.47333 4.34333 1.18 6.30667 0.516667 8.51333C0.173333 9.64 0 10.8167 0 12.0067C0 16.4067 2.40667 20.4467 6.28 22.5533C8.02333 23.5 10 24.0033 11.9967 24.0033C15.49 24.0033 18.81 22.4833 21.1067 19.8233C22.9733 17.6367 24.0033 14.86 24.0033 12.0067C24.0033 7.84333 21.8933 4.04 18.3567 1.82667H18.3533ZM11.9933 22C10.35 22 8.72 21.59 7.28333 20.82C7.28333 20.8167 7.29 20.81 7.29333 20.8067L7.80333 19.9833C7.97667 19.7033 8.00667 19.3567 7.88 19.05L7.04333 17.0067C6.89667 16.65 6.96333 16.2433 7.21333 15.95L9.24333 13.5633C9.47667 13.29 9.55 12.9167 9.44 12.5767L8.99333 11.2067C8.63333 10.0967 7.50333 9.42667 6.35667 9.64333L5.18 9.86333C5.01333 9.89333 4.83667 9.88333 4.67667 9.83333L2.52 9.14C2.48667 9.13 2.45333 9.12667 2.42 9.12C2.42 9.11 2.42333 9.1 2.42667 9.09C2.98 7.25333 4.05667 5.62333 5.55 4.36667C6.83333 3.26667 8.39667 2.51333 10.07 2.18667C10.7 2.06 11.3467 1.99667 11.9933 1.99667C13.6967 1.99667 15.3667 2.43667 16.8567 3.26667L13.9867 5.04333C13.4833 5.35333 13.3467 6.02667 13.6867 6.51L15.4167 8.97C15.5733 9.19333 15.8133 9.34333 16.08 9.39333L18.0467 9.74C18.4967 9.82 18.84 10.1867 18.89 10.64L19.2667 14.05C19.2933 14.2833 19.2367 14.52 19.11 14.7167L17.8267 16.7233C17.49 17.25 17.6967 17.9533 18.2633 18.2133L19.3867 18.73C17.4833 20.8067 14.8067 21.9967 11.9933 21.9967V22Z" fill="#33C1E2"/>
</svg>
